# xmcd
#
# Track frame offsets: 
#        150
#        24301
#        46362
#        65666
#        103210
#        119594
#        155129
#        181029
#        212168
#
# Disc length: 3246 seconds
#
# Revision: 0
# Processed by: cddbd v1.5.1PL0 Copyright (c) Steve Scherf et al.
# Submitted via: ExactAudioCopy v0.95b3
#
DISCID=800cac09
DTITLE=Christina Lux - Live
DYEAR=2003
DGENRE=Blues
TTITLE0=Free
TTITLE1=Love Label
TTITLE2=She Is Me
TTITLE3=Cuts Like A Knife
TTITLE4=She's Got
TTITLE5=Diggi-Special-Scat
TTITLE6=Sex Ain't Love
TTITLE7=It Ain't Mine
TTITLE8=Believe
EXTD=
EXTT0=
EXTT1=
EXTT2=
EXTT3=
EXTT4=
EXTT5=
EXTT6=
EXTT7=
EXTT8=
PLAYORDER=
